<svg width="630" height="335" viewBox="0 0 630 335" fill="none" xmlns="http://www.w3.org/2000/svg">
<path d="M15.8848 316.316C16.1191 320.096 19.2686 322.513 23.9561 322.513C28.9658 322.513 32.1006 319.979 32.1006 315.936C32.1006 312.757 30.3135 310.999 25.9775 309.988L23.6484 309.417C20.8945 308.772 19.7812 307.908 19.7812 306.399C19.7812 304.495 21.5098 303.25 24.1025 303.25C26.5635 303.25 28.2627 304.466 28.5703 306.414H31.7637C31.5732 302.854 28.4385 300.35 24.1465 300.35C19.5322 300.35 16.4561 302.854 16.4561 306.619C16.4561 309.725 18.1992 311.57 22.0225 312.464L24.7471 313.123C27.5449 313.782 28.7754 314.749 28.7754 316.36C28.7754 318.235 26.8418 319.598 24.2051 319.598C21.3779 319.598 19.415 318.323 19.1367 316.316H15.8848Z" fill="#416D19"/>
<path d="M131.527 322V300.862H127.689L120.951 316.917H120.702L113.978 300.862H110.14V322H113.187V306.736H113.392L119.588 321.385H122.078L128.275 306.736H128.48V322H131.527Z" fill="#416D19"/>
<path d="M219.307 322V303.851H225.943V300.862H209.376V303.851H216.026V322H219.307Z" fill="#416D19"/>
<path d="M314.883 303.487H315.088L319.629 319H322.72L328.433 297.862H325.02L321.152 314.049H320.947L316.509 297.862H313.462L309.053 314.049H308.848L304.966 297.862H301.553L307.251 319H310.356L314.883 303.487Z" fill="#416D19"/>
<path d="M413.974 322V303.851H420.61V300.862H404.042V303.851H410.693V322H413.974Z" fill="#416D19"/>
<path d="M505.869 322V313.24H514.951V310.34H505.869V303.851H515.786V300.862H502.588V322H505.869Z" fill="#416D19"/>
<path d="M597.885 316.316C598.119 320.096 601.269 322.513 605.956 322.513C610.966 322.513 614.101 319.979 614.101 315.936C614.101 312.757 612.313 310.999 607.978 309.988L605.648 309.417C602.895 308.772 601.781 307.908 601.781 306.399C601.781 304.495 603.51 303.25 606.103 303.25C608.563 303.25 610.263 304.466 610.57 306.414H613.764C613.573 302.854 610.438 300.35 606.146 300.35C601.532 300.35 598.456 302.854 598.456 306.619C598.456 309.725 600.199 311.57 604.022 312.464L606.747 313.123C609.545 313.782 610.775 314.749 610.775 316.36C610.775 318.235 608.842 319.598 606.205 319.598C603.378 319.598 601.415 318.323 601.137 316.316H597.885Z" fill="#416D19"/>
<path d="M4 226.303C15.8333 182.137 57.2 109.403 128 171.803C216.5 249.803 246.5 185.803 267 139.303C287.5 92.8032 342.5 17.8032 403.5 102.303C464.5 186.803 507 166.303 531.5 122.803C556 79.3032 592.5 92.8032 622.5 102.303" stroke="#416D19" stroke-width="3" stroke-linecap="round" stroke-dasharray="10 10"/>
<path d="M2.5 227.5C10.1667 171.667 45.7 74.4 126.5 132C227.5 204 272.5 189 295.5 155C318.5 121 366 48.0001 435.5 94.0001C505 140 522.5 101.5 539 76C555.5 50.5 570.5 42 614 68" stroke="#8BC53F" stroke-width="3" stroke-linecap="round" stroke-dasharray="10 10"/>
<circle cx="341" cy="65" r="13" fill="#416D19"/>
<circle cx="568" cy="53" r="13" fill="#8BC53F"/>
<path d="M305.477 41.9922V40.0732C309.769 39.707 312.244 37.4658 312.244 33.877C312.244 30.8447 310.516 28.9844 306.839 28.0908L305.477 27.7832V21.4697C307.41 21.7041 308.729 22.9639 308.787 24.5752H311.849C311.761 21.3086 309.271 18.9941 305.477 18.6572V16.6357H303.47V18.6572C299.515 19.0234 297.112 21.2646 297.112 24.6484C297.112 27.5049 298.899 29.4678 302.166 30.3027L303.47 30.6396V37.3193C301.287 37.0703 299.881 35.8545 299.734 34.1113H296.629C296.644 37.5098 299.28 39.8096 303.47 40.0879V41.9922H305.477ZM309.124 34.2139C309.124 36.0742 307.791 37.2168 305.477 37.3486V31.0205C307.967 31.5186 309.124 32.5293 309.124 34.2139ZM300.247 24.3848C300.247 22.7881 301.595 21.5576 303.47 21.4551V27.3584C301.36 26.9336 300.247 25.8936 300.247 24.3848ZM321.751 40H325.032V18.8623H321.766L316.199 22.7881V26.1426L321.502 22.3926H321.751V40ZM332.078 40H335.521L344.72 21.8359V18.8623H330.32V21.7773H341.395V22.0117L332.078 40ZM356.731 40H359.896V35.9131H362.811V32.9834H359.896V18.8623H355.223C351.458 24.502 348.309 29.4092 346.419 32.8662V35.9131H356.731V40ZM349.568 32.8516C352.059 28.5303 354.49 24.7803 356.585 21.748H356.775V33.0566H349.568V32.8516Z" fill="#416D19"/>
<path d="M541.424 30.9922V29.0732C545.716 28.707 548.191 26.4658 548.191 22.877C548.191 19.8447 546.463 17.9844 542.786 17.0908L541.424 16.7832V10.4697C543.357 10.7041 544.676 11.9639 544.734 13.5752H547.796C547.708 10.3086 545.218 7.99414 541.424 7.65723V5.63574H539.417V7.65723C535.462 8.02344 533.06 10.2646 533.06 13.6484C533.06 16.5049 534.847 18.4678 538.113 19.3027L539.417 19.6396V26.3193C537.234 26.0703 535.828 24.8545 535.682 23.1113H532.576C532.591 26.5098 535.228 28.8096 539.417 29.0879V30.9922H541.424ZM545.071 23.2139C545.071 25.0742 543.738 26.2168 541.424 26.3486V20.0205C543.914 20.5186 545.071 21.5293 545.071 23.2139ZM536.194 13.3848C536.194 11.7881 537.542 10.5576 539.417 10.4551V16.3584C537.308 15.9336 536.194 14.8936 536.194 13.3848ZM562.356 29H565.521V24.9131H568.436V21.9834H565.521V7.8623H560.848C557.083 13.502 553.934 18.4092 552.044 21.8662V24.9131H562.356V29ZM555.193 21.8516C557.684 17.5303 560.115 13.7803 562.21 10.748H562.4V22.0566H555.193V21.8516ZM579.759 29.5127C584.314 29.5127 587.405 26.5391 587.405 22.1592C587.405 17.999 584.578 15.0693 580.564 15.0693C578.558 15.0693 577.063 15.7432 576.097 16.9883H575.848L576.404 10.792H586.175V7.8623H573.841L572.728 19.9619H575.73C576.551 18.5996 578.016 17.7939 579.832 17.7939C582.41 17.7939 584.197 19.5957 584.197 22.2471C584.197 24.8838 582.425 26.627 579.788 26.627C577.474 26.627 575.76 25.2646 575.511 23.2139H572.391C572.581 26.9199 575.555 29.5127 579.759 29.5127ZM596.429 29H599.71V7.8623H596.443L590.877 11.7881V15.1426L596.18 11.3926H596.429V29Z" fill="#8BC53F"/>
</svg>
